<svg height='300px' width='300px'  fill="#000000" xmlns="http://www.w3.org/2000/svg" xmlns:xlink="http://www.w3.org/1999/xlink" version="1.1" x="0px" y="0px" viewBox="0 0 95 95" enable-background="new 0 0 95 95" xml:space="preserve"><path d="M0.7,92.8c0-30.2,0-60.4,0-90.6C1,1.4,1.4,1,2.1,0.8c30.2,0,60.5,0,90.7,0c0.7,0.3,1.3,0.8,1.5,1.6c0,30.1,0,60.2,0,90.3  c-0.1,0.2-0.2,0.5-0.3,0.7c-0.3,0.5-0.8,0.7-1.3,1c-30.1,0-60.3,0-90.4,0C1.5,94.1,1,93.6,0.7,92.8z M4.6,49.2  c1.3-1.5,2.9-2.5,4.3-3.4c1.1-0.7,2.2-1.4,3.2-2c0.8-0.5,1.7-0.9,2.7-0.9c1.1,0,2.2,0.1,3.2,0.1c1.1,0,2.1,0.3,3.1,0.8  c1.1,0.6,2.4,0.8,3.5,0.9c0.6,0,1.2,0,1.7,0.1c1.9,0.4,3.2,1.4,4.3,2.9c1.4,2,1.9,4.1,1.3,6.5c-0.3,1.3-0.6,2.6-1,3.8  c-0.6,2.2-1.2,4.4-2.3,6.4c-0.5,0.9-1.1,1.5-2.1,1.8c-2.2,0.6-4.4,1.2-6.6,1.7c-2,0.5-3.9,0.8-6,0.8c-0.9,0-1.7-0.3-2.4-0.8  c-0.9-0.6-1.7-1.4-2.5-2.1c-1.1-0.9-2.1-2-2.9-3.1c-0.6-0.8-1.2-1.7-1.7-2.5c0,1.8,0,3.6,0,5.4c0.3,0,0.6-0.1,0.9,0  c1,0.3,1.2,1.4,1,2.4c-0.2,1.1-0.9,1.9-2,2.2c0,6.1,0,12.2,0,18.2c0.7,0,1.4,0,2.1,0c1.4,0,2.6,0.5,3.2,1.8c0.1,0.3,0.3,0.3,0.6,0.3  c1.2,0,2.5,0,3.6,0c0.1,0,0.3,0,0.5,0c-0.2-0.9-0.4-1.8-0.6-2.7C14,87.4,14,87.1,14,86.7s0.4-0.6,0.9-0.5c1.1,0.3,2.1,0.7,3.1,1.3  c0.5,0.4,1.1,0.8,1.5,1.3s0.5,1.2,0.8,1.8c1.6,0,3.1,0,4.8,0c0.2,0,0.3-0.1,0.4-0.3c0.3-1,0.9-1.9,1.9-1.9c1.3-0.1,2.7-0.2,3.9-0.1  c1.5,0.1,2,0.8,1.9,2.2c1.4,0,2.8,0,4.1,0c0.1,0,0.2-0.1,0.3-0.1c0.6-0.7,1.2-1.4,1.9-2c1.5-1.2,3-1.8,4.8-0.7  c1.1,0.6,2.1,1.3,2.6,2.4c0.1,0.3,0.3,0.3,0.6,0.3c3.9,0,8,0,11.9,0c0.2,0,0.3,0,0.5,0c-0.2-0.7,0.2-1.1,0.6-1.4  c1.5-1.1,3.1-2.1,4.9-2.6c1.8-0.5,3.3-0.4,4.9,0.7c1.2,0.8,2.1,1.9,3,3.1c0.1,0.1,0.2,0.2,0.4,0.2c0.6,0,1.3,0,1.9,0  c0.1,0,0.2,0,0.2-0.1c0.4-0.9,1.3-0.9,2.1-0.9c0.7,0,1.4-0.1,2.1-0.2c1.2-0.1,2.3-0.3,3.4-0.5c0.9-0.1,1.8-0.3,2.7-0.4  c0.7-0.1,1.4-0.1,2.1,0c1,0.1,1.8,0.5,2.6,1.2c0-0.1,0-0.1,0-0.2c0-1.8,0-3.6,0-5.4c0-0.1,0-0.2-0.1-0.3c-0.8-1-0.4-2.2-0.5-3.2  c-0.1-0.6,0.1-1.2,0.6-1.7c0.1-0.1,0-0.2,0-0.3c0-3.9,0-8,0-11.9c0-0.1,0-0.3-0.1-0.4c-1.5-1.3-2.9-2.8-3.9-4.4  c-1.2-1.7-2-3.4-2.1-5.4c-0.1-1.4,0-2.8,0.1-4c0-1.9,1-3.1,2.4-4.1c1.2-0.9,2.4-1.7,3.5-2.5c0.1-0.1,0.2-0.1,0.2-0.2  c0-0.6,0-1.3,0-1.9c-0.6,0.3-1.2,0.5-1.8,0.7c-1.1,0.4-2.6-0.2-2.9-1.4c-0.1-0.6,0-1.1-0.1-1.7c0-0.6,0.2-1.1,0.7-1.5  c1.2-0.9,2.3-1.9,3.7-2.4c0.1,0,0.2-0.1,0.2-0.2c0-0.4,0-0.8,0-1.2c-0.4,0.3-0.8,0.7-1.3,0.9c-1.3,0.5-2.7,1-4,1.4  c-0.8,0.3-1.7,0.4-2.6,0.1c-0.3-0.1-0.6-0.4-0.7-0.6c-0.4-0.7-0.4-1.4-0.3-2.1c0.2-2,1.6-2.9,3.2-2.8c1,0.1,1.9,0.2,2.9,0.3  c0.9,0.1,1.8,0.2,2.7,0.3c0-0.7,0-1.4,0-2.2c-0.3,0-0.7,0.1-1,0.1s-0.7,0-1,0c-0.7,0-1.2-0.3-1.3-0.9c-0.1-0.5-0.2-1.1-0.2-1.6  c-0.1-0.6,0-1.3-0.1-1.9c-0.1-0.8-0.1-1.6,0.1-2.4c0.3-1.4,1.1-2.2,2.7-1.8c0.3,0.1,0.6,0.1,0.9,0.1c0-0.6,0-1.2,0-1.9  c-0.7,0-1.3,0-2,0c-1.6,0-2.8-1.3-2.4-3c0.3-1.1,1.2-2.3,2.8-2.2c0.5,0,1.1,0.1,1.6,0.1c0-0.1,0-0.2,0-0.4c-0.1-1,0.1-2-0.2-3  c-0.1-0.6,0.1-1.2,0.1-1.8c0-1.4,0-2.9,0-4.2c0-0.1-0.1-0.3-0.2-0.4c-0.6-0.4-1.3-0.8-1.8-1.3c-0.5-0.5-0.9-0.5-1.5-0.5  c-6.7,0-13.5,0-20.2,0c-1.5,0-2.8,0.4-4.1,0.5c-0.8,0.1-1.5,0-2.3-0.3c-0.2-0.1-0.5-0.2-0.7-0.2c-15,0-29.9,0-44.9,0  c-0.2,0-0.3,0-0.5,0c-0.1,0.4-0.1,0.8-0.2,1.1c-0.3,1.3-1.5,2-2.8,1.6c-1.1-0.4-2.1-1-3.1-1.8C7.9,5.2,7.5,4.7,7,4.7  c-0.8-0.1-1.6,0-2.4,0c0,0.6,0,1.2,0,1.8c0,0,0.2,0.2,0.3,0.3C5.2,7,5.5,7,5.8,7.3c0.4,0.4,0.6,0.9,1,1.2c0.8,0.7,0.8,1.5,0.6,2.3  c-0.2,0.7-0.5,1.5-1.3,1.8c-0.1,0-0.2,0.1-0.2,0.2c-0.3,0.2-0.5,0.5-0.8,0.6c-0.4,0.2-0.5,0.4-0.5,0.8c0,6,0,12,0,18  c0,0.2,0,0.3,0,0.5c1.1,0.1,2.1,0.2,3.1,0.3C8.3,33,8.9,33,9.4,33.1c0.4,0.1,0.7,0.3,0.9,0.8c0.2,0.6-0.4,2.2-1,2.6  C8,37.3,6.5,37.8,5,38.2c-0.3,0-0.4,0.1-0.4,0.5c0,3.3,0,6.7,0,10C4.6,48.8,4.6,48.9,4.6,49.2z M49.1,73.5c0.1-1.3,0.1-3.3,0.9-5.2  c0.4-1,0.9-2,1.9-2.6c0.4-0.2,0.9-0.4,1.4-0.4c1.1,0,2.2,0,3.2,0.1c0.8,0,1.6,0.2,2.4,0.3c0.8,0.1,1.7,0.3,2.5,0.4  c0.5,0.1,1,0.1,1.5,0.1c1.5,0.2,3.1,0.2,4.4,0.8c0.9,0.4,1.7,1.1,2.3,1.8c0.7,0.8,1.3,1.8,1.6,2.9c0.2,0.8,0.1,1.5-0.2,2.2  c-0.8,1.9-1.7,3.6-3.1,5.1c-1.4,1.5-3,2.8-5,3.1c-0.8,0.2-1.7,0.1-2.6,0.1c-1.4,0-2.7-0.4-3.9-0.8c-1.8-0.6-3.2-1.5-4.6-2.7  c-0.6-0.5-1.2-1.1-1.7-1.7C49.4,76.4,49,75.7,49.1,73.5z M27.1,25.9c-0.2-1.2,0.1-2.3,0.8-3.2c1-1.3,2.3-2.1,3.8-2.3  c1.2-0.2,2.2,0.2,3.2,0.4c1.9,0.5,3.6,1.1,5.2,2.1c1,0.6,2.1,1.2,2.9,2c1.4,1.3,2.2,3,2.6,4.8c0.2,1.1-0.2,2.1-0.9,2.9  c-0.9,1.2-2.1,2.1-3.2,2.9c-1.4,0.9-2.9,1.7-4.2,2.6c-0.5,0.3-0.9,0.6-1.3,0.9c-1.2,0.7-2.4,0.8-3.5,0.2c-1.4-0.6-2.8-1.2-3.8-2.3  c-0.5-0.5-0.8-1.2-0.9-1.9c-0.1-1.6-0.2-3.1-0.4-4.7c-0.1-1.5-0.3-2.9-0.5-4.3C27.1,25.9,27.1,25.9,27.1,25.9z M85.1,19.1  C85,20.7,85,22.3,84.9,24c-0.2,2-1.1,3.7-2.3,5.3c-1.2,1.6-2.3,3.1-3.4,4.6c-0.7,0.9-1.5,1.8-2.8,2.1c-0.8,0.2-1.5-0.2-2.1-0.6  c-1.4-0.9-2.7-1.9-3.7-3.1c-1.1-1.2-2.3-2.5-3-4c-0.5-1.1-0.9-2.3-0.9-3.4c0-1.6,0.7-3,2.1-3.8c1.5-1.1,3.1-2.2,4.6-3.1  c1.2-0.8,2.6-1.4,3.9-1.5c1.3-0.1,2.6-0.3,3.8-0.3c1,0,1.9,0.2,2.7,0.8C84.9,17.5,85.1,18.3,85.1,19.1z M54.6,59.1  c-0.1,0.8-0.1,1.6-0.4,2.3c-0.3,1-1.2,1.5-2.2,1.7c-1.7,0.2-3.4,0.4-5.1,0.6c-1,0.1-2,0.1-3,0.2c-0.7,0-1.3,0-2,0.1  c-0.9,0.1-1.9-0.9-2.1-1.7c-0.3-1.2,0-2.3,0.5-3.3c0.7-1.7,1.3-3.3,1.6-5.1c0.1-0.6,0.3-1.2,0.6-1.8c0.6-1.1,1.8-1.4,2.9-0.9  c2.3,1.2,4.4,2.4,6.6,3.5c0.7,0.4,1.2,1,1.7,1.5c0.4,0.4,0.6,1,0.6,1.6c0,0.5,0,0.9,0,1.4C54.6,59.1,54.6,59.1,54.6,59.1z   M28.9,67.6c0-1.3,0.7-2,1.7-2.6c0.8-0.5,1.6-1.1,2.4-1.5c1.6-0.9,3.1-0.6,4.5,0.3c0.9,0.5,1.7,1.1,2.1,2.1c0.3,0.8,0.4,1.5,0.3,2.4  c-0.2,1.5-0.7,2.9-1.3,4.1C37.9,73.8,37,75,36,76c-1.1,1.1-2.5,1-3.5,0.2c-0.8-0.6-1.2-1.4-1.5-2.3c-0.6-1.7-1.2-3.4-1.7-5.2  C29,68.5,29,68,28.9,67.6z M49.3,15.2c-1.2,0-2.4,0-3.4,0c-0.8,0-1.6,0-2.4-0.1c-1.4-0.1-2.9,0-4.1-0.6c-0.8-0.4-1.5-0.8-2-1.5  c-0.4-0.5-0.8-1-1.1-1.5c-0.4-0.6-0.5-1.4-0.4-2.1c0-0.7,0.6-1.1,1.5-1.2c0.6-0.1,1.1-0.1,1.7-0.2C40,8,40.9,7.9,41.7,7.8  c0.8-0.1,1.6-0.3,2.4-0.4c1.3-0.1,2.7-0.3,3.9-0.3c1.4,0,2.6,0.7,3.1,2c0.4,0.8,0.8,1.7,1,2.6c0.1,0.8,0.1,1.6-0.1,2.4  c-0.1,0.7-1,1.2-1.7,1.3C49.8,15.3,49.5,15.3,49.3,15.2L49.3,15.2z M64.5,45.8c0.1-1.4,0.5-2,1.6-2.5c0.7-0.3,1.5-0.5,2.2-0.7  c0.9-0.3,2.4,0.4,2.9,1.1c1.2,1.6,2.2,3.3,3.1,5.1c0.5,0.8,1,1.6,1.4,2.5c0.4,0.8,0.6,1.6,0.2,2.5c-0.2,0.5-0.5,0.9-1,1.1  c-1.1,0.6-2.2,1.1-3.3,1.3c-1.4,0.2-2.7,0.1-3.7-0.8c-0.2-0.2-0.4-0.4-0.5-0.6c-1.2-2-2-4-2.5-6.3C64.8,47.5,64.7,46.5,64.5,45.8z   M62.6,24.7c0,0.9-0.4,1.7-0.9,2.4c-0.7,0.9-1.5,1.6-2.6,1.9c-1.3,0.4-2.4,0.1-3.4-0.5c-1.4-0.9-2.6-2-3.2-3.4  c-0.5-1-0.7-2.1-0.9-3.2c-0.1-1-0.1-2-0.1-3.1c0-1.4,1-2.2,2.2-2.7c0.3-0.1,0.7-0.2,1-0.4c1.1-0.4,1.9,0.1,2.7,0.8  c1.8,1.7,3.1,3.6,4.3,5.7c0.4,0.7,0.8,1.4,0.9,2.2C62.5,24.4,62.6,24.5,62.6,24.7z M21.6,21.2c-1.6,0.1-3.3-0.1-5.1-0.7  c-0.9-0.3-1.9-0.6-2.5-1.5c-0.2-0.3-0.3-0.6-0.4-1c-0.2-1.8,0-3.4,0.5-5.1c0.2-0.7,0.6-1.4,1-2c0.7-0.9,1.9-1,3-0.5  c1.9,0.8,3.5,1.9,5.1,3.1c0.9,0.7,1.8,1.4,2.6,2.1c0.9,0.8,1.1,1.8,0.7,3c-0.3,0.7-0.6,1.4-1.1,2c-0.5,0.4-1,0.7-1.7,0.7  C23,21.2,22.5,21.2,21.6,21.2z M85.3,77.4c0,1.2,0,2.4,0,3.6c0,1-0.3,2-1.1,2.7c-0.7,0.6-1.4,1-2.4,1c-1.7,0-3.3-0.3-4.9-1  c-1.3-0.6-2.1-1.6-2.2-3c0-0.8-0.2-1.6-0.2-2.4c0.1-1.7,0.7-3.1,2.3-3.7c1.5-0.7,2.9-1.3,4.4-1.7c1.2-0.3,2.3-0.1,3.1,0.8  c0.3,0.3,0.5,0.8,0.6,1.2C85.2,75.6,85.2,76.5,85.3,77.4L85.3,77.4z M17.4,72.5c0.1-0.7,0.1-1.2,0.3-1.6c0.3-1,1.1-1.2,2-1.4  c1.3-0.2,2.7-0.5,4-0.7c0.8-0.1,1.6-0.2,2.5-0.2c0.6,0,1,0.4,1.3,0.9c0.7,1.4,1.3,2.9,1.5,4.4c0.1,0.6,0.2,1.2,0.2,1.8  c0,1.7-1.1,2.5-2.6,2.7c-1.1,0.1-2.3,0.3-3.3,0.5c-0.9,0.2-1.9,0.4-2.8,0.5c-1,0.2-2-0.6-2.1-1.7C17.9,76,17.6,74.2,17.4,72.5z   M79.3,66.3c-1.2,0-2.5,0-3.7-0.4c-1.3-0.4-2-1.5-2.3-2.8c-0.5-2.2,0.2-4,1.6-5.7c1.2-1.5,2.7-2.7,4.5-3.2c1.3-0.4,2.5,0.2,2.7,1.6  c0.2,1,0.4,2.1,0.6,3.1c0.2,1.2,0.6,2.3,0.8,3.4c0.1,0.8,0.2,1.7,0,2.5c-0.2,1-0.9,1.4-1.9,1.5c-0.4,0.1-0.7,0.1-1.1,0.1  C80.2,66.3,79.8,66.3,79.3,66.3z M78.1,38.6c3.1-0.2,5.5,2.2,6.3,4.4c0.4,1,0.2,2.1-0.1,3.1c-0.5,1.5-1.2,2.8-2.2,3.8  C81,51,80,51.5,78.6,50.6c-1.4-0.9-2.6-2.1-3.3-3.5c-0.4-0.8-0.6-1.7-0.7-2.6c-0.2-1.2-0.1-2.3,0.3-3.2c0.2-0.7,0.6-1.3,1-1.9  s1.1-0.6,1.7-0.7C77.5,38.6,77.8,38.6,78.1,38.6z M18.9,25.6c-0.1,1.2-0.2,2.3-1,3.1c-0.5,0.7-1.3,0.9-2,1.1c-1.4,0.4-2.8,0.7-4.1,1  C11,31,10.2,31,9.4,31.1c-0.6,0.1-1.3,0.1-1.9,0.1c-0.5,0-0.9-0.3-1.1-0.8c-0.1-0.3-0.2-0.6-0.2-0.8c-0.1-1.3-0.3-2.6-0.3-3.8  c0-0.8,0.1-1.5,0.6-2.2c0.5-0.7,1.3-1,2.2-0.9c1.4,0.2,2.8,0.4,4.2,0.5c1,0.1,2,0.1,3.1,0.1c0.5,0,1-0.1,1.4-0.1  c1,0,1.3,0.5,1.5,1.2C18.9,24.8,18.9,25.2,18.9,25.6z M27.8,13.4c-1.4,0-2.7-0.5-3.8-1.1c-1-0.6-2-1.1-2.9-1.8  c-0.5-0.3-0.9-0.8-1.2-1.3c-0.3-0.4-0.1-0.9,0.5-1.4c1-0.8,2.1-1.6,3.2-2.2c1.4-0.6,2.8-1,4.1-0.8c1.5,0.1,2.9,0.8,3.7,2  c0.6,0.8,1.3,1.5,1.9,2.3c0.4,0.5,0.8,1.1,0.8,1.9c0,0.5-0.2,0.8-0.6,0.9c-1.5,0.5-3.1,0.9-4.5,1.3C28.8,13.4,28.3,13.4,27.8,13.4z   M27,38.3c0,1,0,1.8-0.5,2.5c-0.5,0.8-1.3,1.1-2.1,1.2c-1.6,0.2-3.1,0-4.7-0.3c-1.2-0.2-2.4-0.2-3.5-0.3c-0.7,0-1.2-0.4-1.2-1.1  c0-0.2,0.2-0.5,0.3-0.6c1.4-1.3,2.4-2.8,3.5-4.2c1-1.2,2.1-2.3,3.2-3.2c1.1-0.9,2.3-0.4,3,0.6c1,1.4,1.7,3,1.9,4.7  C27.1,37.9,27,38.2,27,38.3z M71.2,6.9c0.3,0,0.9,0.1,1.4,0.2c1.1,0.3,1.6,0.9,1.4,2c-0.3,1.8-0.7,3.4-1.1,5.2  c-0.2,0.9-0.5,1.8-1.3,2.4c-0.5,0.4-1.1,0.7-1.7,0.9c-1.2,0.6-2.5,1-3.7,0.9c-0.5,0-0.8-0.2-0.8-0.7c0-0.7,0-1.3,0-2  c0.1-0.8,0.2-1.7,0.3-2.5c0.1-0.9,0.2-1.8,0.4-2.7c0.1-0.7,0.1-1.4,0.3-2c0.4-1.2,1.2-1.7,2.4-1.8C69.5,7,70.2,7,71.2,6.9z M79.4,15  c-0.4-0.1-1-0.1-1.5-0.3c-1.2-0.4-1.7-1.5-1.3-2.8c0.4-1.3,1.1-2.5,2-3.4c0.8-1,1.8-1.7,2.9-2.3c0.9-0.5,1.9-0.4,2.8-0.1  c1.4,0.5,2.5,1.4,3.2,2.6c1,1.5,0.3,3.1-0.8,3.8c-1.7,1.3-3.6,2-5.7,2.3C80.6,14.9,80.1,15,79.4,15z M58.5,37.6c0.6,0,1.3,0,2,0.2  c1,0.2,1.4,1.3,1.2,2.1c-0.3,1.7-0.7,3.3-1.1,5c-0.5,2.1-1.9,3.1-3.8,3.7c-0.6,0.2-1.3,0.3-1.9,0.5c-0.9,0.2-1.9-0.7-1.7-1.7  c0.5-2.6,1-5.1,1.5-7.7c0.2-1.1,0.9-2,2.4-2C57.4,37.7,57.8,37.7,58.5,37.6z M46.1,35.9c0.2-1,0.4-2,0.6-3c0.2-1,0.8-1.8,1.7-2.3  c1.2-0.6,2.3-1.2,3.6-1.1c0.5,0,1,0.1,1.4,0.4c0.8,0.5,1.5,1.1,2.1,1.7c0.8,0.7,0.9,1.9,0.4,2.6c-0.5,0.7-1.1,1.4-1.8,2  c-1,0.9-2.1,1.6-3.2,2.2C49.4,39,48,38.8,46.9,38c-0.5-0.4-0.7-0.9-0.8-1.6C46.1,36.2,46.1,36,46.1,35.9  C46.2,35.9,46.2,35.9,46.1,35.9z M42,82.9c-0.7-0.1-1.2-0.2-1.6-0.7c-1-1-1.8-2-2.3-3.2c-0.3-0.9-0.4-1.8,0.2-2.6  c0.6-0.8,1.1-1.6,2-2.2c1.3-0.8,2.7-0.7,3.7,0.3c0.8,0.7,1.6,1.5,2.1,2.5c0.7,1.3,0.7,2.5-0.4,3.5c-0.8,0.8-1.6,1.6-2.6,2.1  C42.7,82.8,42.3,82.8,42,82.9z M66.8,63.8c0.1,0.8-0.4,1.3-1.3,1.1c-1.2-0.3-2.5-0.6-3.6-0.9c-0.9-0.2-1.8-0.3-2.7-0.2  c-0.8,0.1-1.6,0-2.3-0.4c-0.6-0.3-0.8-0.7-0.5-1.3c0.6-1.3,1.4-2.5,2.6-3.3c0.9-0.6,1.8-1.2,2.8-1.4c0.9-0.2,1.7-0.2,2.4,0.6  c1.4,1.5,2.3,3.2,2.7,5.2c0,0.1,0.1,0.2,0.1,0.4C66.8,63.6,66.8,63.7,66.8,63.8z M49.9,80.8c1.1,0,2.1,0.2,2.8,0.9  c0.4,0.4,0.7,0.8,0.9,1.3c0.7,1.3,0.8,2.8,0.4,4.1c-0.4,1.4-1.6,1.9-3,1.4c-1.6-0.7-3.1-1.6-4.2-2.8c-0.5-0.5-0.9-1-1.3-1.6  c-0.5-0.9-0.3-1.8,0.7-2.4C47.4,81.1,48.6,80.8,49.9,80.8z M48.3,43.6c-0.1,1.1-0.1,2-0.8,2.7c-0.4,0.4-0.9,0.5-1.5,0.5  c-0.9,0.1-1.7,0.3-2.5,0c-1.4-0.5-2.3-1.5-2.7-2.9c-0.4-1.4-0.4-2.9,0.3-4.1c0.3-0.5,0.7-0.8,1.3-0.8c1.6,0,3.1,0.4,4.4,1.3  c0.8,0.5,1,1.2,1.1,2C48.2,42.7,48.3,43.3,48.3,43.6z M12,84.4c-0.4,0-0.9-0.1-1.3-0.1c-0.8-0.1-1.3-0.6-1.5-1.4  c-0.3-1.1-0.3-2.3,0-3.3c0.2-0.8,0.7-1.4,1.4-1.8c0.9-0.6,1.8-1,2.9-1c1.4,0,1.8,0.3,2.2,1.6c0.3,0.9,0.6,1.9,0.6,2.8  c0,1,0,2.2-1.1,2.8c-0.4,0.2-1,0.4-1.5,0.5C13.2,84.4,12.6,84.4,12,84.4z M10.3,37c1.2-0.1,2.9,1.1,3.1,2.5c0.1,0.5-0.1,1-0.4,1.3  c-1.6,1.7-3.4,2.8-5.5,3.3c-0.9,0.3-1.9-0.2-2.3-1c-0.6-1.3-0.5-2.8,0.5-3.6c1.2-1,2.4-2,3.9-2.4c0.1,0,0.1-0.1,0.2-0.1  S10.2,37,10.3,37z M68.4,34.2c-0.1,2.3-0.8,3.7-2.4,4.6c-1.2,0.7-2.3,0.7-3-0.3c-0.4-0.6-0.7-1.4-0.9-2.1c-0.3-1.4,0.1-2.7,0.9-3.8  c1.1-1.6,3-1.8,4.2-0.4C68,32.9,68.4,33.7,68.4,34.2z M34.1,49.8c0.2-1.9,0.7-3.3,1.8-4.5c0.4-0.4,0.8-0.9,1.4-1  c0.5-0.1,0.9,0.1,1.3,0.4c0.6,0.4,0.8,1.1,1,1.8c0.4,2,0,3.7-0.8,5.6c-0.4,0.9-1.2,1.3-1.9,1.2c-0.9-0.1-1.7-0.5-2.1-1.3  C34.4,51,34.3,50.3,34.1,49.8z M51.2,25.9c-0.1,1.1-0.6,2-1.4,2.7c-0.3,0.3-0.9,0.3-1.3-0.1c-1.2-1.1-2.3-2.2-3.3-3.3  c-0.8-0.9-0.5-1.9,0-2.8c0.5-1,1.5-1.6,2.5-2.1c0.5-0.2,0.9-0.1,1.2,0.3c0.8,1.6,1.6,3.1,2.5,4.7C51.2,25.6,51.2,25.7,51.2,25.9z   M43.5,72.4c-0.3,0-0.5,0-0.8,0c-1.1-0.1-1.4-0.9-1.6-1.9c-0.2-1.1,0-2.1,0.5-3c0.6-1.1,1.7-1.8,2.9-2c1.1-0.2,1.8,0.5,2.4,1.3  c1.2,1.5,0.7,3.8-0.7,4.8C45.7,72,44.8,72.4,43.5,72.4z M17.9,83.1c-0.1-1,1-2.4,2.2-2.5c0.5,0,1-0.2,1.5-0.3  c1.1-0.1,2.1,0.3,2.8,1.2c0.6,0.8,0.9,1.8,1,2.8c0.1,0.6-0.3,1.2-0.9,1.4c-0.7,0.2-1.5,0.5-2.2,0.5c-1.1,0-2.4,0.1-3.2-0.8  C18.4,85,17.9,84,17.9,83.1z M36.3,61.4c-1.3-0.3-2.7-0.5-3.6-1.5c-0.5-0.5-0.7-0.9,0-1.6c0.5-0.6,0.8-1.3,1.2-2  c0.4-0.5,0.7-1.1,1.2-1.6c0.4-0.4,0.9-0.4,1.4-0.3c1,0.2,2,0.4,2.6,1.2c0.2,0.3,0.4,0.8,0.4,1.1c-0.3,1.3-0.6,2.6-1.4,3.6  C37.6,61,37.1,61.4,36.3,61.4z M57.9,56.6c-1.1,0-1.9-0.5-2.5-1.4c-0.3-0.4-0.6-0.9-0.8-1.4c-0.6-1-0.5-2,0.5-2.7  c0.8-0.6,1.7-1.3,2.7-1.6c0.6-0.2,1.1,0,1.4,0.5c1,1.3,1.5,2.9,1.7,4.4c0.1,0.8-0.4,1.5-1.2,1.7C59.1,56.4,58.5,56.4,57.9,56.6z   M60.9,9.4c0.1,1.7-1.1,2.6-2.6,3c-0.4,0.1-0.8,0.2-1.2,0.2c-0.9,0-1.4-0.5-1.5-1.4c-0.2-1.8-0.5-3.5-0.8-5.2  c-0.1-0.8,0.2-1.2,1.1-1c1.4,0.3,2.7,1.1,3.8,1.9C60.6,7.3,60.9,8.3,60.9,9.4z M43,21c-1.6-0.1-2.9-0.4-4.2-0.7  c-1.1-0.3-2.1-0.5-3.1-0.8c-0.1,0-0.3-0.1-0.4-0.2c-0.5-0.3-0.5-0.5-0.2-0.9c0.7-0.9,1.5-1.7,2.7-2c0.7-0.2,1.4-0.2,2.1,0  c1.5,0.4,2.9,0.8,4.1,1.8c0.4,0.3,0.8,0.7,1,1.2c0.3,0.6-0.1,1.3-0.7,1.5C43.7,20.9,43.3,20.9,43,21z M20.3,28.3  c0.1-1.8,0.5-3.1,1.4-4.3c0.9-1.2,2.2-0.9,3,0.1c0.7,1,0.9,2.1,0.8,3.2c-0.1,1.2-0.5,2.3-1.5,3c-0.6,0.4-1.3,0.7-1.9,0.9  c-0.4,0.1-1.2-0.4-1.4-0.9C20.5,29.6,20.4,28.9,20.3,28.3z M8.5,21c-0.8,0-1.5,0-2.2-0.4c-1.1-0.7-1.3-2.2-0.7-3.2  c0.8-1.5,1.9-1.6,3.2-1.4c0.5,0.1,1,0.2,1.5,0.4c1.3,0.6,1.4,1.7,1.3,2.8c-0.2,1.1-1.2,1.9-2.3,1.9C9.1,21,8.8,21,8.5,21z   M28.8,43.7c0-1.2,0.8-2.7,2.2-3.1c2.2-0.7,3.7,1.2,3.7,2.8c0,0.8-0.3,1.4-1,1.8c-1.1,0.6-2.3,0.9-3.4,0.6  C29.1,45.4,28.8,44.5,28.8,43.7z M13.4,75.4c-0.6-0.1-1.3-0.1-1.9-0.3c-1.1-0.3-1.3-0.9-1.4-1.9c-0.1-0.9,0.3-1.7,0.9-2.4  c0.5-0.7,1.2-0.8,2-0.6c1,0.3,1.9,0.7,2.3,1.8c0.3,0.8,0.2,1.7,0,2.5c-0.1,0.4-0.5,0.7-1,0.7C14,75.4,13.7,75.4,13.4,75.4L13.4,75.4  z M81.9,71c-0.9-0.1-1.2-0.9-1-1.5c0.3-0.8,0.9-1.4,1.6-1.8c0.7-0.5,1.4-1,2.1-1.4c0.5-0.3,0.9-0.6,1.4-0.8c0.5-0.2,1.3,0.5,1.4,1.2  c0.3,1.4-0.6,3-1.9,3.3C84.4,70.4,83.1,70.7,81.9,71z M52.5,49.6c-0.1,0.5-0.2,1-0.4,1.4c-0.2,0.5-0.7,0.7-1.3,0.6  c-0.8-0.2-1.5-0.4-2.2-0.6c-0.5-0.1-0.9-0.4-1.3-0.6c-0.6-0.3-0.7-1.2-0.2-1.7c0.6-0.7,1.3-1.1,2.1-1.5c0.3-0.1,0.5-0.4,0.7-0.5  c0.7-0.5,1.6,0,1.9,0.6C52.1,48,52.3,48.8,52.5,49.6z M14.6,36.3c-0.7,0-1.1-0.4-1.4-0.9c-0.3-0.4-0.5-0.9-0.7-1.3  c-0.2-0.4-0.1-0.6,0.1-1c0.7-0.9,1.7-1.4,2.8-1.5c1.6-0.1,3,1.2,2.5,2.8c-0.2,0.5-0.6,0.8-1,1.1C16.1,35.9,15.2,36.3,14.6,36.3z   M30.2,19.3c-0.8-0.1-1.5-0.1-1.9-0.8c-0.2-0.4-0.1-0.8,0.1-1.1c0.8-1.2,2-1.8,3.3-2.1c0.5-0.1,1.2-0.2,1.7-0.1  c0.6,0.1,1,0.9,0.9,1.5c-0.2,1.3-1.1,1.9-2.2,2.2C31.5,19.1,30.8,19.2,30.2,19.3z M9.6,12c0-0.5,0.2-1.3,0.9-1.7  c0.8-0.5,2.2-0.1,2.7,0.9c0.6,1.1,0.3,2.1-0.8,2.7c-0.5,0.3-1,0.5-1.6,0.3C9.9,13.8,9.6,13.3,9.6,12z M5.7,71.8  c0.1-0.9,0.5-1.5,1-2.2c0.2-0.3,0.5-0.6,0.7-0.9c0.4-0.5,1.1-0.5,1.6,0.1s0.7,1.2,0.3,1.9c-0.4,0.9-1,1.6-1.7,2.1  c-0.3,0.2-0.7,0.5-1.1,0.3C6,72.8,5.8,72.4,5.7,71.8z M90.3,69.9c-0.1,0.9-0.4,1.5-0.9,2.1c-0.3,0.4-0.7,0.7-1.1,1  c-0.3,0.2-0.6,0.4-1,0.1s-0.7-0.7-0.8-1.2c0-0.6,0.1-1.2,0.5-1.7s0.7-1,1.1-1.4c0.6-0.8,1.1-0.6,1.8,0.1  C90.1,69.3,90.2,69.7,90.3,69.9z M70.9,36.2c0.9-0.1,2.2,1.2,2.1,2.2s-0.7,1.8-1.7,1.8c-1,0.1-2-1-2-2.1  C69.4,36.9,70,36.2,70.9,36.2z M49.6,43.6c0-0.7,0.5-1.2,0.8-1.7c0.2-0.3,0.4-0.5,0.7-0.8c0.4-0.4,1-0.2,1.1,0.3  c0.2,1.1,0.1,2.3-0.5,3.2c-0.5,0.8-1.2,0.8-1.7-0.1C49.8,44.3,49.7,43.9,49.6,43.6z M86.5,77.7c-0.1-0.7,0.1-1.3,0.8-1.7  c0.5-0.2,0.9-0.1,1.3,0.2c0.4,0.3,0.7,0.8,0.6,1.4c-0.2,0.8-0.8,1.3-1.6,1.7c-0.4,0.2-1-0.3-1.1-0.9C86.4,78.1,86.5,77.9,86.5,77.7z   M6.6,79.2c-0.5-0.1-0.9-0.4-0.9-0.9c0-0.4,0-0.7,0-1.1c-0.1-0.6,0.5-1.3,1.1-1.4s1.4,0.4,1.5,1.1c0.2,0.6-0.3,1.6-0.9,1.9  C7.2,79,6.9,79.1,6.6,79.2z M78,68.1c0.6,0,1.4,0.6,1.5,1c0.1,0.6-0.3,1.5-0.9,1.8c-0.2,0.1-0.4,0.1-0.5,0c-0.4-0.3-0.9-0.6-1.2-1  C76.4,69,77,68.1,78,68.1z"></path></svg>