<svg height='300px' width='300px'  fill="#ccc" xmlns="http://www.w3.org/2000/svg" xmlns:xlink="http://www.w3.org/1999/xlink" version="1.1" x="0px" y="0px" viewBox="0 0 100 100" enable-background="new 0 0 100 100" xml:space="preserve"><path d="M26.241,69.749c0,0-7.177,5.001-2.474,8.569s15.692,2.901,18.347,0.479c2.656-2.421,2.211-10.294-2.563-10.196  C34.777,68.699,31.625,67.038,26.241,69.749z"></path><path d="M49.532,70.298c0,0-6.214,4.861-3.24,8.26c2.974,3.399,15.343,2.132,15.666-0.688c0.323-2.82-0.005-10.397-4.646-9.392  C52.67,69.485,51.161,68.776,49.532,70.298z"></path><path d="M16.48,79.532c0,0,5.849-3.003,4.002-6.434c-1.847-3.43-12.092-4.601-12.822-2.263s-1.725,8.84,2.207,8.829  C13.799,79.654,14.906,80.53,16.48,79.532z"></path><path d="M71.015,81.766c0,0-7.272,0.174-7.215-4.342c0.057-4.516,4.938-8.274,7.26-7.944s8.581,1.255,8.894,5.064  c0.313,3.809-0.714,5.499-1.579,6.008S72.435,81.835,71.015,81.766z"></path><path d="M60.329,57.381c0,0-7.974,1.246-4.734,5.98c3.239,4.734,11.338,8.597,14.203,4.111c2.866-4.485,1.993-10.216-0.872-10.092  C66.06,57.506,64.149,56.024,60.329,57.381z"></path><path d="M73.769,63.842c0,0,1.744,8.348,8.348,6.603c6.603-1.744,9.593-8.223,6.105-11.089c-3.489-2.866-7.974-5.482-11.089-2.367  C74.019,60.104,73.284,62.266,73.769,63.842z"></path><path d="M47.695,57.61c0,0-10.341-4.236-13.58,1.62c-3.239,5.856,0.997,8.079,4.111,8.089c3.115,0.009,14.467,3.498,14.522-1.984  C52.803,59.853,47.695,57.61,47.695,57.61z"></path><path d="M18.169,55.978c0,0-8.846,3.613-4.984,8.721s7.102,7.226,9.967,5.731c2.866-1.495,7.849-5.012,7.725-6.991  s-0.872-7.71-4.734-7.461S23.526,54.483,18.169,55.978z"></path><path d="M63.112,46.239c0,0,8.477-4.859,14.208,0c5.731,4.859,0.848,9.22-1.258,9.469c-2.106,0.249-12.206,1.246-12.95-1.121  S58.701,47.935,63.112,46.239z"></path><path d="M33.953,44.769c0,0-9.144-4.236-12.009,1.62s0.881,8.079,3.636,8.089s12.793,3.498,12.842-1.984  S33.953,44.769,33.953,44.769z"></path><path d="M46.8,46.849c0,0-8.242,2.838-3.913,6.833s13.659,6.15,15.866,1.163c2.207-4.986,0.207-10.44-2.815-9.737  C52.915,45.811,50.606,44.742,46.8,46.849z"></path><path d="M34.736,40.508c0,0,2.848-7.561,9.136-5.796s5.484,7.439,4.264,8.509c-1.221,1.07-7.182,6.032-8.928,4.336  C37.462,45.861,32.809,43.739,34.736,40.508z"></path><path d="M82.376,72.585c0,0-2.133,4.787,0.977,6.906c3.11,2.118,10.425-0.935,9.599-3.16c-0.826-2.226-3.797-8.007-6.348-6.453  C84.052,71.432,82.845,71.14,82.376,72.585z"></path><path d="M64.191,32.908c0,0-10.882-2.542-13.151,3.754s2.266,7.819,5.343,7.334c3.077-0.485,14.839,1.158,14.023-4.263  C69.591,34.312,64.191,32.908,64.191,32.908z"></path><path d="M33.631,30.953c0,0,3.437,3.957,6.671,2.033c3.234-1.923,3.559-9.843,1.192-10.035c-2.366-0.192-8.861,0.057-8.531,3.026  C33.294,28.947,32.519,29.917,33.631,30.953z"></path><path d="M33.665,35.183c0,0-2.347-4.686-5.957-3.626c-3.61,1.06-5.891,8.651-3.647,9.425c2.244,0.774,8.598,2.145,9.015-0.813  C33.493,37.21,34.485,36.463,33.665,35.183z"></path><path d="M46.646,22.987c0,0-4.299,6.615-0.383,8.865c3.916,2.249,15.204-2.965,14.594-5.737s-3.38-9.833-7.444-7.375  S47.692,21.019,46.646,22.987z"></path></svg>