<svg height="488pt" viewBox="-101 0 488 488" width="488pt" xmlns="http://www.w3.org/2000/svg"><path d="m37.796875 460.761719.183594 2.679687c.148437 2.113282-.847657 4.0625-2.351563 4.613282l-12.792968 4.683593c-1.441407.53125-2.441407 2.308594-2.441407 4.339844 0 2.5 1.5 4.523437 3.335938 4.492187l41.390625-.628906c1.679687-.027344 3.058594-1.816406 3.15625-4.09375l.703125-16.085937zm0 0" fill="#e0ebfc"/><path d="m128.980469 472.738281-12.789063-4.683593c-1.507812-.550782-2.5-2.5-2.355468-4.613282l.183593-2.679687h-31.183593l.703124 16.085937c.097657 2.28125 1.480469 4.070313 3.15625 4.09375l41.390626.628906c1.835937.03125 3.335937-1.992187 3.335937-4.492187.003906-2.03125-.996094-3.808594-2.441406-4.339844zm0 0" fill="#e0ebfc"/><path d="m38.402344 337.765625v.1875c0-3.539063-2.867188-6.402344-6.398438-6.402344h-1.203125v-62.121093h-19.785156v62.121093h-.613281c-3.53125 0-6.398438 2.867188-6.398438 6.402344v30.003906c0 3.53125 2.867188 6.398438 6.398438 6.398438h21.601562c3.535156 0 6.398438-2.867188 6.398438-6.398438v-7.859375c0 1.988282 1.613281 3.601563 3.601562 3.601563 1.988282 0 3.601563-1.613281 3.601563-3.601563v-15.632812zm0 0" fill="#f9cfcf"/><path d="m32 378.355469h-21.601562c-5.734376 0-10.398438-4.667969-10.398438-10.402344v-30.003906c0-4.546875 2.933594-8.421875 7.011719-9.832031v-58.691407c0-2.207031 1.789062-4 4-4h19.789062c2.207031 0 4 1.792969 4 4v58.507813c3.707031 1.035156 6.582031 4.082031 7.378907 7.882812l6.144531 5.71875c.8125.753906 1.277343 1.816406 1.277343 2.925782v15.632812c0 4.054688-3.195312 7.378906-7.203124 7.589844v.269531c0 5.738281-4.664063 10.402344-10.398438 10.402344zm-21.601562-42.804688c-1.324219 0-2.398438 1.078125-2.398438 2.398438v30.003906c0 1.324219 1.074219 2.402344 2.398438 2.402344h21.601562c1.324219 0 2.398438-1.078125 2.398438-2.402344v-7.855469c0-2.210937 1.792968-4 4-4 1.308593 0 2.472656.625 3.203124 1.597656v-11.488281l-5.070312-4.71875c-1.265625-.671875-2.132812-2.003906-2.132812-3.535156 0-1.324219-1.078126-2.402344-2.398438-2.402344h-1.199219c-2.207031 0-4-1.789062-4-4v-58.121093h-11.789062v58.121093c0 2.210938-1.792969 4-4 4zm0 0" fill="#3762cc"/><path d="m37.578125 460.761719h31.542969l6.785156-113.792969 6.789062 113.792969h31.542969l7.878907-84.207031v-32.796876h-92.417969v32.796876zm0 0" fill="#4671c6"/><path d="m114.238281 464.761719h-31.542969c-2.117187 0-3.871093-1.652344-3.996093-3.765625l-2.792969-46.839844-2.792969 46.839844c-.125 2.113281-1.875 3.765625-3.992187 3.765625h-31.542969c-2.0625 0-3.789063-1.574219-3.980469-3.628907l-7.878906-84.203124c-.011719-.125-.019531-.25-.019531-.375v-32.796876c0-2.210937 1.792969-4 4-4h92.417969c2.207031 0 4 1.789063 4 4v32.796876c0 .125-.007813.25-.019532.375l-7.878906 84.203124c-.191406 2.054688-1.917969 3.628907-3.980469 3.628907zm-27.773437-8h24.128906l7.523438-80.390625v-28.613282h-38.15625zm-45.242188 0h24.132813l6.5-109.003907h-38.15625v28.613282zm0 0" fill="#3762cc"/><path d="m29.890625 243.921875c0-12.371094 5.367187-23.449219 13.871094-31.078125v-1.667969h-.75c-19.851563 0-36 16.148438-36 36v22.25h22.878906zm0 0" fill="#f9a7a7"/><path d="m109.484375 211.023438 93.710937 17.964843-1.609374 23.46875-94.496094-6.476562-5.792969-.398438 2.613281-38.140625zm0 0" fill="#f9cfcf"/><path d="m201.589844 256.457031c-.09375 0-.183594-.003906-.277344-.011719l-100.292969-6.875c-1.058593-.070312-2.042969-.558593-2.742187-1.359374-.699219-.800782-1.046875-1.84375-.976563-2.902344l2.613281-38.144532c.097657-1.410156.933594-2.664062 2.195313-3.296874 1.261719-.636719 2.769531-.558594 3.957031.207031l4.925782 3.164062 92.953124 17.820313c1.988282.378906 3.375 2.183594 3.238282 4.203125l-1.613282 23.464843c-.136718 2.113282-1.894531 3.730469-3.980468 3.730469zm-96.03125-14.589843 92.3125 6.328124 1.09375-15.945312-90.234375-17.296875c-.457031-.089844-.890625-.253906-1.292969-.492187zm0 0" fill="#3762cc"/><path d="m91.28125 203.898438 56.523438 8.53125c1.136718.171874 1.917968 1.230468 1.746093 2.367187l-5.90625 39.144531c-.171875 1.136719-1.234375 1.917969-2.367187 1.746094l-56.523438-8.527344zm0 0" fill="#f9a7a7"/><path d="m141.59375 259.710938c-.300781 0-.605469-.023438-.910156-.070313l-56.527344-8.527344c-1.046875-.15625-1.992188-.726562-2.621094-1.578125-.632812-.855468-.894531-1.921875-.738281-2.972656l6.527344-43.261719c.332031-2.183593 2.363281-3.6875 4.554687-3.355469l56.523438 8.527344c3.316406.5 5.609375 3.605469 5.105468 6.917969l-5.90625 39.144531c-.457031 3.011719-3.054687 5.175782-6.007812 5.175782zm-52.289062-15.910157 50.671874 7.644531 5.335938-35.347656-50.671875-7.648437zm0 0" fill="#3762cc"/><path d="m61.125 189.890625h28.800781v22.398437h-28.800781zm0 0" fill="#f9cfcf"/><path d="m89.925781 216.289062h-28.800781c-2.207031 0-4-1.792968-4-4v-22.398437c0-2.207031 1.792969-4 4-4h28.800781c2.207031 0 4 1.792969 4 4v22.398437c0 2.210938-1.792969 4-4 4zm-24.800781-8h20.800781v-14.398437h-20.800781zm0 0" fill="#3762cc"/><path d="m89.925781 203.222656v1.074219c0 4.441406-3.582031 8.042969-8 8.042969h-12.800781c-4.417969 0-8-3.601563-8-8.042969v-.777344c-17.945312 4.605469-31.234375 20.921875-31.234375 40.402344v99.835937h92.417969v-99.835937c0-19.894531-13.855469-36.511719-32.382813-40.699219zm0 0" fill="#f9a7a7"/><path d="m122.308594 347.757812h-92.417969c-2.207031 0-4-1.792968-4-4v-99.835937c0-20.898437 14.082031-39.105469 34.242187-44.277344 1.195313-.308593 2.46875-.042969 3.445313.714844s1.546875 1.921875 1.546875 3.160156v.773438c0 2.230469 1.796875 4.046875 4 4.046875h12.800781c2.207031 0 4-1.816406 4-4.046875v-1.074219c0-1.214844.550781-2.363281 1.503907-3.125.949218-.757812 2.195312-1.046875 3.375-.777344 20.902343 4.726563 35.5 23.066406 35.5 44.601563v99.835937c.003906 2.210938-1.785157 4.003906-3.996094 4.003906zm-88.417969-8h84.417969v-95.835937c0-16.015625-10.320313-30.339844-25.078125-35.585937-1.660157 4.660156-6.101563 8.003906-11.304688 8.003906h-12.800781c-5.0625 0-9.402344-3.160156-11.164062-7.621094-14.367188 5.527344-24.074219 19.433594-24.074219 35.203125v95.835937zm0 0" fill="#3762cc"/><path d="m36.535156 164.125h-2.945312c-6.285156 0-11.378906-5.09375-11.378906-11.378906v-31.386719c0-6.285156 5.09375-11.378906 11.378906-11.378906h2.945312c6.28125 0 11.375 5.09375 11.375 11.378906v31.386719c0 6.285156-5.09375 11.378906-11.375 11.378906zm0 0" fill="#4671c6"/><path d="m117.4375 162.625h-2.949219c-6.28125 0-11.375-5.09375-11.375-11.378906v-31.386719c0-6.285156 5.09375-11.378906 11.375-11.378906h2.949219c6.28125 0 11.375 5.09375 11.375 11.378906v31.386719c0 6.285156-5.09375 11.378906-11.375 11.378906zm0 0" fill="#4671c6"/><path d="m36.53125 168.125h-2.945312c-8.476563 0-15.375-6.898438-15.375-15.375v-31.390625c0-8.476563 6.898437-15.375 15.375-15.375h2.945312c8.480469 0 15.378906 6.898437 15.378906 15.375v31.386719c0 8.480468-6.898437 15.378906-15.378906 15.378906zm-2.941406-54.140625c-4.070313 0-7.378906 3.308594-7.378906 7.375v31.386719c0 4.070312 3.3125 7.378906 7.378906 7.378906h2.945312c4.066406 0 7.375-3.3125 7.375-7.378906v-31.386719c0-4.066406-3.308594-7.375-7.375-7.375zm0 0" fill="#3762cc"/><path d="m117.4375 166.625h-2.949219c-8.476562 0-15.375-6.898438-15.375-15.375v-31.390625c0-8.476563 6.898438-15.375 15.375-15.375h2.949219c8.476562 0 15.375 6.898437 15.375 15.375v31.386719c0 8.480468-6.898438 15.378906-15.375 15.378906zm-2.949219-54.140625c-4.066406 0-7.375 3.308594-7.375 7.375v31.386719c0 4.070312 3.3125 7.378906 7.375 7.378906h2.949219c4.066406 0 7.375-3.3125 7.375-7.378906v-31.386719c0-4.066406-3.308594-7.375-7.375-7.375zm0 0" fill="#3762cc"/><path d="m118.191406 137.015625c-.089844 0-.179687.011719-.269531.015625v-4.015625c0-23.460937-19.019531-42.480469-42.480469-42.480469-23.460937 0-42.480468 19.019532-42.480468 42.480469v4.015625c-.089844-.003906-.175782-.015625-.265626-.015625-7.160156 0-12.960937 5.800781-12.960937 12.960937 0 7.15625 5.800781 12.960938 12.960937 12.960938.46875 0 .933594-.03125 1.390626-.078125 4.382812 18.792969 21.226562 32.796875 41.355468 32.796875s36.972656-14.003906 41.359375-32.796875c.457031.046875.917969.078125 1.390625.078125 7.15625 0 12.957032-5.804688 12.957032-12.960938 0-7.160156-5.800782-12.960937-12.957032-12.960937zm0 0" fill="#f9cfcf"/><g fill="#3762cc"><path d="m74.835938 175.660156c-5.511719 0-9.992188-4.085937-9.992188-9.105468 0-1.101563.894531-2 2-2 1.101562 0 2 .898437 2 2 0 2.816406 2.6875 5.105468 5.992188 5.105468 3.300781 0 5.988281-2.289062 5.988281-5.105468 0-1.101563.898437-2 2-2 1.105469 0 2 .898437 2 2 0 5.019531-4.480469 9.105468-9.988281 9.105468zm0 0"/><path d="m54.996094 151.609375c-1.988282 0-3.601563-1.613281-3.601563-3.601563v-6c0-1.988281 1.613281-3.601562 3.601563-3.601562 1.988281 0 3.601562 1.613281 3.601562 3.601562v6c0 1.988282-1.613281 3.601563-3.601562 3.601563zm0 0"/><path d="m94.558594 151.609375c-1.988282 0-3.597656-1.613281-3.597656-3.601563v-6c0-1.988281 1.609374-3.601562 3.597656-3.601562 1.988281 0 3.601562 1.613281 3.601562 3.601562v6c0 1.988282-1.613281 3.601563-3.601562 3.601563zm0 0"/><path d="m75.441406 199.65625c-20.640625 0-38.476562-13.335938-44.421875-32.800781-8.570312-.84375-15.289062-8.089844-15.289062-16.878907 0-8.070312 5.667969-14.84375 13.230469-16.546874v-.414063c0-25.628906 20.847656-46.480469 46.480468-46.480469 25.625 0 46.480469 20.851563 46.480469 46.480469v.414063c7.558594 1.703124 13.226563 8.476562 13.226563 16.546874 0 8.789063-6.714844 16.035157-15.285157 16.878907-5.945312 19.464843-23.78125 32.800781-44.421875 32.800781zm-41.355468-40.796875c1.839843 0 3.464843 1.265625 3.890624 3.09375 4.082032 17.488281 19.488282 29.703125 37.464844 29.703125 17.972656 0 33.378906-12.214844 37.460938-29.703125.457031-1.96875 2.308594-3.296875 4.320312-3.070313.316406.03125.640625.054688.964844.054688 4.941406 0 8.960938-4.023438 8.960938-8.960938 0-4.917968-3.976563-8.917968-8.882813-8.960937-.148437.007813-.273437.015625-.34375.015625-1.046875 0-2.050781-.410156-2.800781-1.144531-.765625-.75-1.199219-1.78125-1.199219-2.855469v-4.015625c0-21.21875-17.265625-38.480469-38.480469-38.480469-21.21875 0-38.480468 17.261719-38.480468 38.480469v4.015625c0 1.074219-.433594 2.105469-1.203126 2.859375-.769531.75-1.828124 1.167969-2.882812 1.140625-.066406 0-.253906-.011719-.324219-.015625-4.796875 0-8.820312 4.019531-8.820312 8.960937 0 4.9375 4.023437 8.960938 8.960937 8.960938.328125 0 .648438-.023438.964844-.054688.144531-.015624.289062-.023437.429688-.023437zm0 0"/></g><path d="m111.726562 81.59375h-7.398437c-5.851563 0-10.921875 3.484375-13.449219 8.585938-.398437.796874-1.464844.8125-1.890625.03125-2.34375-4.324219-6.742187-7.3125-11.847656-7.578126-31.183594-.894531-49.777344-8.464843-55.691406-11.292968-.964844-.460938-2.066407.265625-2.066407 1.359375v30.46875c0 11.210937 8.855469 20.296875 19.785157 20.296875h28.703125c8.433594 0 15.789062-4.675782 19.773437-11.628906.492188-.859376 1.714844-.632813 1.960938.335937 1.507812 5.945313 6.667969 10.324219 12.804687 10.324219h22.183594c3.140625 0 5.6875-2.675782 5.6875-5.972656v-15.449219c0-10.757813-8.308594-19.480469-18.554688-19.480469zm0 0" fill="#4671c6"/><path d="m67.871094 127.460938h-28.699219c-13.117187 0-23.789063-10.898438-23.789063-24.296876v-30.464843c0-1.910157.957032-3.652344 2.5625-4.664063 1.585938-1 3.539063-1.113281 5.230469-.304687 4.878907 2.335937 23.199219 10.023437 54.078125 10.90625 4.902344.25 9.339844 2.382812 12.550782 5.878906 3.59375-4.351563 8.847656-6.921875 14.523437-6.921875h7.398437c12.4375 0 22.554688 10.535156 22.554688 23.480469v15.449219c0 5.5-4.34375 9.972656-9.6875 9.972656h-22.183594c-5.972656 0-11.382812-3.195313-14.496094-8.195313-5.058593 5.746094-12.351562 9.160157-20.042968 9.160157zm-44.488282-50.890626v26.59375c0 8.988282 7.082032 16.296876 15.789063 16.296876h28.703125c6.660156 0 12.90625-3.683594 16.304688-9.613282 1.027343-1.796875 3.007812-2.777344 5.039062-2.5 2.070312.28125 3.746094 1.789063 4.265625 3.835938 1.089844 4.304687 4.761719 7.308594 8.929687 7.308594h22.179688c.933594 0 1.691406-.882813 1.691406-1.96875v-15.449219c0-8.535157-6.53125-15.480469-14.558594-15.480469h-7.394531c-4.140625 0-7.925781 2.4375-9.871093 6.359375-.847657 1.710937-2.550782 2.796875-4.441407 2.832031-1.882812-.011718-3.632812-.988281-4.542969-2.664062-1.765624-3.253906-4.957031-5.308594-8.542968-5.492188-26.949219-.769531-44.769532-6.429687-53.550782-10.058594zm0 0" fill="#3762cc"/><path d="m122.308594 347.757812h-92.417969c-2.207031 0-4-1.792968-4-4v-99.835937c0-20.898437 14.082031-39.105469 34.242187-44.277344 1.195313-.308593 2.46875-.042969 3.445313.714844s1.546875 1.921875 1.546875 3.160156v.773438c0 2.230469 1.796875 4.046875 4 4.046875h12.800781c2.207031 0 4-1.816406 4-4.046875v-1.074219c0-1.214844.550781-2.363281 1.503907-3.125.949218-.757812 2.195312-1.046875 3.375-.777344 20.902343 4.726563 35.5 23.066406 35.5 44.601563v99.835937c.003906 2.210938-1.785157 4.003906-3.996094 4.003906zm-88.417969-8h84.417969v-95.835937c0-16.015625-10.320313-30.339844-25.078125-35.585937-1.660157 4.660156-6.101563 8.003906-11.304688 8.003906h-12.800781c-5.0625 0-9.402344-3.160156-11.164062-7.621094-14.367188 5.527344-24.074219 19.433594-24.074219 35.203125v95.835937zm0 0" fill="#3762cc"/><path d="m208.953125 318.40625c-.003906 0-.003906 0 0 0-2.699219 0-5.761719-1.9375-6.53125-6.261719-3.667969-20.589843-5.527344-43.519531-5.527344-68.144531s1.859375-47.550781 5.527344-68.140625c.773437-4.328125 3.835937-6.261719 6.53125-6.261719 2.691406 0 5.757813 1.933594 6.527344 6.261719 3.667969 20.589844 5.53125 43.515625 5.53125 68.140625s-1.863281 47.550781-5.53125 68.144531c-.769531 4.324219-3.835938 6.261719-6.527344 6.261719zm2.589844-6.964844h.019531zm-2.589844-125.964844c-2.695313 17.960938-4.058594 37.601563-4.058594 58.523438s1.367188 40.5625 4.058594 58.523438c2.691406-17.960938 4.054687-37.601563 4.054687-58.523438s-1.363281-40.558594-4.054687-58.523438zm0 0" fill="#3762cc"/><path d="m183.464844 2c-51.914063 0-94 108.347656-94 242s42.085937 242 94 242c51.914062 0 94-108.347656 94-242s-42.082032-242-94-242zm5.375 451.734375c-16.902344 0-34.367188-20-47.910156-54.871094-15.867188-40.851562-24.605469-95.847656-24.605469-154.863281s8.738281-114.011719 24.605469-154.863281c13.542968-34.871094 31.007812-54.871094 47.910156-54.871094 16.898437 0 34.363281 20 47.90625 54.871094 15.867187 40.851562 24.605468 95.847656 24.605468 154.863281s-8.738281 114.011719-24.605468 154.863281c-13.542969 34.871094-31.007813 54.871094-47.90625 54.871094zm0 0" fill="#a4c9ff"/><path d="m240.746094 89.136719c-13.542969-34.871094-31.003906-54.871094-47.90625-54.871094s-34.363282 20-47.910156 54.871094c-15.867188 40.851562-24.605469 95.847656-24.605469 154.863281s8.738281 114.011719 24.605469 154.863281c13.546874 34.871094 31.007812 54.871094 47.910156 54.871094s34.363281-20 47.90625-54.871094c15.871094-40.851562 24.609375-95.847656 24.609375-154.863281s-8.742188-114.011719-24.609375-154.863281zm-13.1875 293.464843c-11.140625 28.6875-22.773438 38.863282-29.347656 38.863282-6.578126 0-18.207032-10.175782-29.351563-38.859375-13.976563-35.992188-21.675781-85.21875-21.675781-138.605469s7.699218-102.613281 21.675781-138.605469c11.144531-28.683593 22.773437-38.859375 29.351563-38.859375 6.574218 0 18.207031 10.175782 29.347656 38.859375 13.980468 35.992188 21.679687 85.214844 21.679687 138.605469s-7.699219 102.613281-21.679687 138.601562zm0 0" fill="#e0ebfc"/><path d="m227.558594 105.394531c-11.140625-28.683593-22.773438-38.859375-29.347656-38.859375-6.578126 0-18.207032 10.175782-29.351563 38.859375-13.980469 35.992188-21.675781 85.21875-21.675781 138.605469s7.699218 102.613281 21.675781 138.605469c11.144531 28.683593 22.773437 38.859375 29.351563 38.859375 6.574218 0 18.207031-10.175782 29.347656-38.863282 13.980468-35.988281 21.679687-85.210937 21.679687-138.601562s-7.699219-102.613281-21.679687-138.605469zm-13.1875 260.949219c-1.515625 3.90625-2.964844 7.1875-4.3125 9.9375-3.210938 6.558594-9.746094 6.558594-12.957032 0-1.347656-2.75-2.796874-6.03125-4.3125-9.933594-12.09375-31.132812-18.75-74.582031-18.75-122.347656s6.660157-91.214844 18.75-122.347656c1.515626-3.90625 2.964844-7.183594 4.3125-9.933594 3.210938-6.558594 9.746094-6.558594 12.957032 0 1.347656 2.75 2.796875 6.03125 4.3125 9.933594 12.09375 31.132812 18.753906 74.582031 18.753906 122.347656s-6.660156 91.210938-18.753906 122.34375zm0 0" fill="#a4c9ff"/><path d="m183.464844 2c-51.914063 0-94 108.347656-94 242s42.085937 242 94 242c51.914062 0 94-108.347656 94-242s-42.082032-242-94-242zm5.375 451.734375c-16.902344 0-34.367188-20-47.910156-54.871094-15.867188-40.851562-24.605469-95.847656-24.605469-154.863281s8.738281-114.011719 24.605469-154.863281c13.542968-34.871094 31.007812-54.871094 47.910156-54.871094 16.898437 0 34.363281 20 47.90625 54.871094 15.867187 40.851562 24.605468 95.847656 24.605468 154.863281s-8.738281 114.011719-24.605468 154.863281c-13.542969 34.871094-31.007813 54.871094-47.90625 54.871094zm0 0" fill="#a4c9ff"/><path d="m214.371094 121.652344c-1.515625-3.90625-2.964844-7.183594-4.3125-9.933594-3.210938-6.558594-9.746094-6.558594-12.957032 0-1.347656 2.75-2.796874 6.027344-4.3125 9.933594-12.089843 31.132812-18.75 74.582031-18.75 122.347656s6.660157 91.214844 18.75 122.347656c1.515626 3.90625 2.964844 7.183594 4.3125 9.933594 3.210938 6.558594 9.746094 6.558594 12.957032 0 1.347656-2.75 2.796875-6.03125 4.3125-9.9375 12.09375-31.128906 18.753906-74.578125 18.753906-122.34375s-6.660156-91.214844-18.753906-122.347656zm-2.828125 189.789062c-.703125 3.953125-4.480469 3.953125-5.179688 0-3.578125-20.078125-5.46875-43.007812-5.46875-67.441406s1.890625-47.363281 5.46875-67.441406c.703125-3.949219 4.480469-3.949219 5.179688 0 3.578125 20.078125 5.46875 43.011718 5.46875 67.441406 0 24.433594-1.890625 47.363281-5.46875 67.441406zm0 0" fill="#e0ebfc"/><path d="m203.578125 385.199219c-4.109375 0-7.875-2.675781-10.066406-7.160157-1.503907-3.070312-3-6.515624-4.453125-10.246093-12.265625-31.578125-19.019532-75.542969-19.019532-123.792969 0-48.246094 6.753907-92.210938 19.023438-123.792969 1.445312-3.722656 2.941406-7.167969 4.449219-10.246093 2.195312-4.484376 5.957031-7.160157 10.070312-7.160157 4.109375 0 7.875 2.675781 10.070313 7.160157 1.5 3.070312 3 6.515624 4.449218 10.246093 12.269532 31.582031 19.023438 75.546875 19.023438 123.789063 0 48.246094-6.753906 92.210937-19.023438 123.792968-1.449218 3.730469-2.945312 7.175782-4.449218 10.25-2.195313 4.484376-5.960938 7.160157-10.074219 7.160157zm.003906-274.398438c-.972656 0-2.078125 1.023438-2.886719 2.679688-1.40625 2.871093-2.8125 6.109375-4.175781 9.621093-11.917969 30.683594-18.480469 73.617188-18.480469 120.898438 0 47.285156 6.5625 90.21875 18.480469 120.894531 1.367188 3.519531 2.773438 6.757813 4.175781 9.625.808594 1.652344 1.914063 2.679688 2.882813 2.679688.972656 0 2.078125-1.027344 2.890625-2.679688 1.402344-2.871093 2.808594-6.109375 4.175781-9.628906 11.917969-30.679687 18.480469-73.613281 18.480469-120.894531 0-47.277344-6.5625-90.214844-18.480469-120.894532-1.367187-3.523437-2.773437-6.757812-4.175781-9.625-.8125-1.648437-1.917969-2.675781-2.886719-2.675781zm5.371094 207.605469c-.003906 0-.003906 0 0 0-2.699219 0-5.761719-1.9375-6.53125-6.261719-3.667969-20.589843-5.527344-43.519531-5.527344-68.144531s1.859375-47.550781 5.527344-68.140625c.773437-4.328125 3.835937-6.261719 6.53125-6.261719 2.691406 0 5.757813 1.933594 6.527344 6.261719 3.667969 20.589844 5.53125 43.515625 5.53125 68.140625s-1.863281 47.550781-5.53125 68.144531c-.769531 4.324219-3.835938 6.261719-6.527344 6.261719zm2.589844-6.964844h.019531zm-2.589844-125.964844c-2.695313 17.960938-4.058594 37.601563-4.058594 58.523438s1.367188 40.5625 4.058594 58.523438c2.691406-17.960938 4.054687-37.601563 4.054687-58.523438.003907-20.921875-1.363281-40.5625-4.054687-58.523438zm1.433594-8.535156" fill="#3762cc"/><path d="m192.839844 457.734375c-18.917969 0-37.253906-20.394531-51.636719-57.421875-16.042969-41.300781-24.878906-96.8125-24.878906-156.308594 0-59.5 8.835937-115.011718 24.878906-156.3125 14.382813-37.03125 32.71875-57.421875 51.636719-57.421875 18.914062 0 37.253906 20.394531 51.636718 57.421875 16.042969 41.300782 24.875 96.8125 24.875 156.3125 0 59.496094-8.832031 115.007813-24.875 156.308594-14.382812 37.027344-32.722656 57.421875-51.636718 57.421875zm0-419.46875c-14.941406 0-31.457032 19.558594-44.183594 52.320313-15.691406 40.398437-24.332031 94.882812-24.332031 153.414062s8.640625 113.015625 24.332031 153.414062c12.726562 32.761719 29.242188 52.320313 44.183594 52.320313 14.9375 0 31.457031-19.558594 44.179687-52.320313 15.691407-40.398437 24.335938-94.882812 24.335938-153.414062s-8.644531-113.015625-24.335938-153.414062c-12.726562-32.761719-29.242187-52.320313-44.179687-52.320313zm5.371094 387.199219c-10.640626 0-23.007813-15.480469-33.082032-41.414063-14.152344-36.441406-21.949218-86.179687-21.949218-140.050781s7.792968-103.609375 21.949218-140.050781c10.074219-25.933594 22.441406-41.414063 33.082032-41.414063 10.636718 0 23.003906 15.480469 33.078124 41.414063 14.152344 36.441406 21.949219 86.179687 21.949219 140.050781s-7.792969 103.609375-21.949219 140.050781c-10.074218 25.933594-22.4375 41.414063-33.078124 41.414063zm0-354.929688c-3.203126 0-14.054688 6.523438-25.625 36.308594-13.804688 35.542969-21.40625 84.253906-21.40625 137.15625s7.601562 101.613281 21.40625 137.15625c11.570312 29.789062 22.421874 36.308594 25.625 36.308594 3.203124 0 14.050781-6.523438 25.621093-36.3125 13.804688-35.539063 21.40625-84.25 21.40625-137.152344s-7.601562-101.613281-21.40625-137.15625c-11.570312-29.789062-22.417969-36.308594-25.621093-36.308594zm29.347656 312.066406h.019531zm0 0" fill="#3762cc"/><path d="m198.210938 425.464844c-10.640626 0-23.007813-15.480469-33.082032-41.414063-14.152344-36.441406-21.949218-86.179687-21.949218-140.050781s7.792968-103.609375 21.949218-140.050781c10.074219-25.933594 22.441406-41.414063 33.082032-41.414063 10.636718 0 23.003906 15.480469 33.078124 41.414063 14.152344 36.441406 21.949219 86.179687 21.949219 140.050781s-7.792969 103.609375-21.949219 140.050781c-10.074218 25.933594-22.4375 41.414063-33.078124 41.414063zm0-354.929688c-3.203126 0-14.054688 6.523438-25.625 36.308594-13.804688 35.542969-21.40625 84.253906-21.40625 137.15625s7.601562 101.613281 21.40625 137.15625c11.570312 29.789062 22.421874 36.308594 25.625 36.308594 3.203124 0 14.050781-6.523438 25.621093-36.3125 13.804688-35.539063 21.40625-84.25 21.40625-137.152344s-7.601562-101.613281-21.40625-137.15625c-11.570312-29.789062-22.417969-36.308594-25.621093-36.308594zm5.367187 314.664063c-4.109375 0-7.875-2.675781-10.066406-7.160157-1.503907-3.066406-3-6.511718-4.453125-10.246093-12.265625-31.578125-19.019532-75.542969-19.019532-123.792969 0-48.246094 6.753907-92.210938 19.023438-123.792969 1.445312-3.722656 2.941406-7.167969 4.449219-10.246093 2.195312-4.484376 5.957031-7.160157 10.066406-7.160157 4.113281 0 7.878906 2.675781 10.074219 7.160157 1.5 3.066406 3 6.511718 4.449218 10.246093 12.269532 31.582031 19.023438 75.546875 19.023438 123.792969s-6.753906 92.207031-19.023438 123.792969c-1.449218 3.726562-2.945312 7.175781-4.449218 10.246093-2.195313 4.484376-5.960938 7.160157-10.074219 7.160157zm0-274.398438c-.96875 0-2.074219 1.023438-2.882813 2.679688-1.40625 2.871093-2.8125 6.109375-4.175781 9.621093-11.917969 30.683594-18.480469 73.617188-18.480469 120.898438 0 47.285156 6.5625 90.21875 18.480469 120.894531 1.367188 3.519531 2.773438 6.757813 4.175781 9.625.808594 1.652344 1.914063 2.679688 2.882813 2.679688.972656 0 2.078125-1.027344 2.890625-2.679688 1.402344-2.871093 2.808594-6.109375 4.175781-9.628906 11.917969-30.679687 18.480469-73.613281 18.480469-120.894531 0-47.277344-6.5625-90.214844-18.480469-120.894532-1.367187-3.519531-2.773437-6.757812-4.175781-9.625-.8125-1.648437-1.917969-2.675781-2.890625-2.675781zm10.792969 255.542969h.019531zm0 0" fill="#3762cc"/><path d="m187.464844 488c-26.867188 0-51.792969-25.867188-70.191406-72.835938-17.929688-45.78125-27.808594-106.570312-27.808594-171.164062s9.878906-125.378906 27.808594-171.164062c18.398437-46.96875 43.328124-72.835938 70.191406-72.835938 26.871094 0 51.796875 25.867188 70.195312 72.835938 17.933594 45.78125 27.804688 106.570312 27.804688 171.164062s-9.875 125.382812-27.804688 171.164062c-18.394531 46.96875-43.324218 72.835938-70.195312 72.835938zm0-480c-23.007813 0-45.875 24.695312-62.742188 67.753906-17.578125 44.875-27.257812 104.625-27.257812 168.246094s9.679687 123.371094 27.257812 168.246094c16.867188 43.058594 39.734375 67.753906 62.742188 67.753906 23.011718 0 45.878906-24.695312 62.746094-67.753906 17.574218-44.875 27.253906-104.625 27.253906-168.246094s-9.679688-123.371094-27.253906-168.246094c-16.863282-43.058594-39.734376-67.753906-62.746094-67.753906zm5.375 448c-18.910156 0-37.246094-20.226562-51.632813-56.957031-16.046875-40.964844-24.882812-96.027344-24.882812-155.042969s8.835937-114.074219 24.882812-155.042969c14.386719-36.730469 32.722657-56.957031 51.632813-56.957031s37.246094 20.226562 51.632812 56.957031c16.042969 40.964844 24.878906 96.027344 24.878906 155.042969s-8.835937 114.074219-24.878906 155.042969c-14.386718 36.730469-32.722656 56.957031-51.632812 56.957031zm0-416c-14.945313 0-31.460938 19.394531-44.1875 51.875-15.6875 40.058594-24.328125 94.085938-24.328125 152.125s8.640625 112.066406 24.328125 152.125c12.722656 32.480469 29.242187 51.875 44.1875 51.875 14.945312 0 31.460937-19.394531 44.183594-51.875 15.691406-40.058594 24.332031-94.085938 24.332031-152.125s-8.640625-112.066406-24.332031-152.125c-12.722657-32.480469-29.242188-51.875-44.183594-51.875zm0 0" fill="#3762cc"/><path d="m239.878906 226.15625-7.839844-.535156c1.984376.136718 3.699219-1.363282 3.835938-3.347656.136719-1.984376-1.359375-3.703126-3.34375-3.835938l-15.597656-1.070312-7.175782 6.726562.1875.011719c-3.527343-.242188-6.582031 2.421875-6.824218 5.945312l-1.476563 21.550781c-.242187 3.527344 2.421875 6.582032 5.949219 6.824219l29.933594 2.050781c3.527344.242188 6.582031-2.421874 6.824218-5.945312l1.472657-21.550781c.242187-3.527344-2.421875-6.582031-5.945313-6.824219zm0 0" fill="#f9cfcf"/><path d="m237.976562 264.492188c-.238281 0-.484374-.007813-.722656-.023438l-29.9375-2.054688c-5.714844-.386718-10.050781-5.363281-9.664062-11.082031l1.480468-21.550781c.1875-2.769531 1.445313-5.304688 3.542969-7.128906 1.542969-1.347656 3.414063-2.195313 5.398438-2.464844l6.125-5.738281c.8125-.757813 1.90625-1.15625 3.007812-1.070313l15.597657 1.070313c4.046874.273437 7.144531 3.691406 7.082031 7.699219l.265625.019531c5.71875.390625 10.054687 5.363281 9.664062 11.085937l-1.476562 21.550782c-.1875 2.769531-1.445313 5.300781-3.542969 7.128906-1.910156 1.664062-4.308594 2.558594-6.820313 2.558594zm-28.472656-36.398438c-.578125 0-1.132812.207031-1.574218.589844-.480469.417968-.773438 1.003906-.816407 1.640625l-1.476562 21.550781c-.089844 1.320312.910156 2.46875 2.230469 2.558594l29.933593 2.050781c.65625.050781 1.257813-.164063 1.742188-.582031.480469-.421875.769531-1.003906.816406-1.640625l1.476563-21.554688c.089843-1.320312-.910157-2.464843-2.230469-2.558593l-7.824219-.535157c-.003906 0-.011719 0-.015625 0-2.207031-.152343-3.871094-2.0625-3.714844-4.265625.089844-1.304687.792969-2.417968 1.8125-3.082031l-11.464843-.785156-5.046876 4.734375c-.757812 1.214844-2.128906 1.988281-3.671874 1.886718-.003907 0-.003907 0-.007813 0-.058594-.007812-.113281-.007812-.167969-.007812zm0 0" fill="#3762cc"/><path d="m29.890625 273.429688h-22.878906c-2.207031 0-4-1.792969-4-4v-22.253907c0-22.054687 17.945312-40 40-40h.75c2.207031 0 4 1.792969 4 4v1.671875c0 1.132813-.484375 2.214844-1.328125 2.976563-7.972656 7.152343-12.546875 17.390625-12.546875 28.097656v25.507813c.003906 2.207031-1.789063 4-3.996094 4zm-18.878906-8h14.875v-21.507813c0-10.117187 3.371093-19.890625 9.429687-27.8125-13.941406 3.453125-24.304687 16.074219-24.304687 31.066406zm0 0" fill="#3762cc"/><path d="m23.691406 485.570312c-1.746094 0-3.425781-.707031-4.738281-2-1.628906-1.601562-2.5625-3.96875-2.5625-6.492187 0-3.730469 2.039063-6.984375 5.066406-8.09375l12.441407-4.558594c.054687-.144531.117187-.390625.09375-.714843l-.183594-2.675782c-.078125-1.105468.308594-2.195312 1.066406-3.003906.753906-.8125 1.816406-1.269531 2.921875-1.269531h31.183594c1.089843 0 2.136719.445312 2.890625 1.230469.757812.789062 1.15625 1.851562 1.105468 2.941406l-.703124 16.085937c-.195313 4.457031-3.246094 7.863281-7.09375 7.921875l-41.390626.628906c-.03125 0-.066406 0-.097656 0zm.832032-9.1875c-.058594.132813-.132813.371094-.132813.695313 0 .195313.023437.355469.058594.484375l39.796875-.605469c.015625-.082031.03125-.175781.035156-.285156l.519531-11.910156h-22.847656c-.296875 3.261719-2.195313 6.039062-4.953125 7.046875zm0 0" fill="#3762cc"/><path d="m128.125 485.570312c-.03125 0-.066406 0-.097656 0l-41.390625-.628906c-3.847657-.058594-6.898438-3.464844-7.09375-7.917968l-.703125-16.085938c-.050782-1.089844.351562-2.152344 1.105468-2.941406.753907-.789063 1.796876-1.234375 2.890626-1.234375h31.183593c1.105469 0 2.164063.460937 2.921875 1.269531.757813.8125 1.144532 1.898438 1.066406 3.003906l-.183593 2.679688c-.023438.324218.039062.570312.089843.714844l12.441407 4.554687c3.03125 1.113281 5.066406 4.367187 5.066406 8.09375 0 2.527344-.933594 4.890625-2.5625 6.496094-1.308594 1.292969-2.988281 1.996093-4.734375 1.996093zm-40.558594-8.613281 39.800782.605469c.03125-.125.058593-.289062.058593-.484375 0-.324219-.074219-.5625-.132812-.695313l-12.480469-4.574218c-2.753906-1.007813-4.65625-3.789063-4.953125-7.046875h-22.84375l.519531 11.910156c.003906.105469.015625.203125.03125.285156zm0 0" fill="#3762cc"/></svg>