<?xml version="1.0" encoding="iso-8859-1"?>
<!-- Generator: Adobe Illustrator 19.0.0, SVG Export Plug-In . SVG Version: 6.00 Build 0)  -->
<svg version="1.1" id="Capa_1" xmlns="http://www.w3.org/2000/svg" xmlns:xlink="http://www.w3.org/1999/xlink" x="0px" y="0px"
	 viewBox="0 0 448 448" style="enable-background:new 0 0 448 448;" xml:space="preserve">
<g>
	<path style="fill:#B6C1CC;" d="M224,326.128l-6.24-7.728C200,296.32,200,270.64,200,240.88V216h48v24.88
		c0,29.744,0,55.44-17.76,77.52L224,326.128z"/>
	<path style="fill:#B6C1CC;" d="M224,439.584l-2.688-0.976C127.312,404.8,120,339.28,120,320v-74.176l5.888-1.616
		c19.76-5.392,41.792-9.056,65.488-10.896L200,232.64v8.64c0,32.352,0,60.56,24,83.952c24-23.376,24-51.616,24-83.984v-8.64
		l8.608,0.672c23.28,1.776,45.92,5.52,65.472,10.8l5.92,1.6V320c0,19.312-7.296,84.976-101.296,118.608L224,439.584z"/>
</g>
<rect x="168" y="8" style="fill:#676767;" width="112" height="32"/>
<path style="fill:#D84234;" d="M248,216h-48V99.424L210,102c10.512,2.72,17.472,2.72,27.984,0L248,99.424V216z"/>
<path style="fill:#010101;" d="M335.952,239.824c-23.12-7.36-50.368-12.448-79.952-14.624V224V103.12
	c19.056-11.088,32-31.488,32-55.12c0-1.088,0-48,0-48H160v48c0,23.632,12.944,44.032,32,55.12V224v1.2
	c-29.648,2.192-56.784,7.36-80,14.8v80c0,30.672,16.256,95.872,112,128c96.256-32.128,112-96.672,112-128L335.952,239.824z M176,16
	h96v16h-96V16z M176,48h96c0,26.464-21.536,48-48,48S176,74.464,176,48z M208,109.744c5.136,1.328,10.448,2.256,16,2.256
	s10.864-0.928,16-2.256V208h-32V109.744z M240,224v16.88c0,28.88,0,52.624-16,72.496c-16-19.872-16-43.616-16-72.496V224H240z
	 M224.016,431.072C135.024,399.072,128,338.176,128,320v-68.064c19.504-5.328,40.992-8.864,64-10.64c0,35.616,0.128,68.16,32,94.704
	c31.888-26.544,32-59.104,32-94.736c22.768,1.744,44.656,5.328,64,10.544V320C320,338.208,312.976,399.232,224.016,431.072z"/>
<g>
</g>
<g>
</g>
<g>
</g>
<g>
</g>
<g>
</g>
<g>
</g>
<g>
</g>
<g>
</g>
<g>
</g>
<g>
</g>
<g>
</g>
<g>
</g>
<g>
</g>
<g>
</g>
<g>
</g>
</svg>
