<?xml version="1.0" encoding="iso-8859-1"?>
<!-- Generator: Adobe Illustrator 19.0.0, SVG Export Plug-In . SVG Version: 6.00 Build 0)  -->
<svg version="1.1" id="Layer_1" xmlns="http://www.w3.org/2000/svg" xmlns:xlink="http://www.w3.org/1999/xlink" x="0px" y="0px"
	 viewBox="0 0 512 512" style="enable-background:new 0 0 512 512;" xml:space="preserve">
<rect x="380.371" y="47.495" transform="matrix(-0.7071 -0.7071 0.7071 -0.7071 710.9404 429.6292)" style="fill:#918D8F;" width="128.158" height="40.158"/>
<rect x="353.289" y="112.596" transform="matrix(-0.7071 -0.7071 0.7071 -0.7071 550.7957 495.9666)" style="fill:#5B5255;" width="49.653" height="42.628"/>
<polyline style="fill:#9B624C;" points="326.879,150.048 201.98,274.945 237.087,310.052 380.609,166.531 345.501,131.425 "/>
<path style="fill:#918D8F;" d="M182.608,459.726c-44.195,44.194-108.976,55.248-163.471,33.169
	c-22.078-54.496-11.025-119.274,33.17-163.47l80.268-80.269l47.596,47.597l21.809-21.809l35.107,35.108l-21.808,21.809
	l47.596,47.595L182.608,459.726z"/>
<g style="opacity:0.15;">
	<path style="fill:#231F20;" d="M157.382,273.963l-24.807-24.807l-80.268,80.269C8.112,373.621-2.941,438.4,19.137,492.895
		c1.838,0.745,3.69,1.445,5.552,2.115c-11.955-49.438,1.358-103.738,39.958-142.339l80.269-80.269l12.468,12.468v-10.906H157.382z"
		/>
</g>
<g>
	<path style="fill:#231F20;" d="M148.9,440.189c-24.338,19.087-55.635,28.339-83.712,24.767c-4.404-0.557-8.428,2.553-8.99,6.957
		c-0.562,4.404,2.554,8.428,6.957,8.99c4.619,0.589,9.304,0.878,14.032,0.878c28.292,0,57.944-10.364,81.632-28.942
		c3.494-2.739,4.105-7.792,1.364-11.284C157.446,438.062,152.392,437.45,148.9,440.189z"/>
	<path style="fill:#231F20;" d="M168.745,421.572l-2.913,2.913c-3.139,3.14-3.139,8.229,0,11.368
		c1.57,1.569,3.628,2.354,5.685,2.354s4.114-0.785,5.685-2.354l2.913-2.913c3.139-3.14,3.139-8.229,0-11.368
		C176.972,418.434,171.884,418.434,168.745,421.572z"/>
	<path style="fill:#231F20;" d="M511.961,97.904c-0.005-0.051-0.016-0.101-0.023-0.152c-0.025-0.21-0.053-0.419-0.093-0.627
		c-0.009-0.044-0.023-0.087-0.032-0.131c-0.046-0.213-0.096-0.424-0.16-0.634c-0.009-0.029-0.02-0.056-0.03-0.085
		c-0.07-0.221-0.146-0.44-0.235-0.657c-0.006-0.015-0.014-0.03-0.02-0.045c-0.094-0.225-0.198-0.448-0.314-0.666
		c-0.008-0.015-0.017-0.029-0.026-0.043c-0.116-0.214-0.24-0.424-0.376-0.629c-0.028-0.042-0.06-0.079-0.089-0.121
		c-0.121-0.174-0.243-0.346-0.379-0.512c-0.168-0.207-0.348-0.405-0.538-0.596l-90.621-90.62c-0.19-0.19-0.389-0.37-0.595-0.538
		c-0.162-0.133-0.33-0.252-0.499-0.37c-0.046-0.032-0.089-0.069-0.135-0.1c-0.198-0.132-0.403-0.252-0.61-0.364
		c-0.021-0.012-0.042-0.026-0.064-0.038c-0.206-0.109-0.416-0.207-0.628-0.297c-0.028-0.012-0.055-0.027-0.084-0.039
		c-0.199-0.083-0.402-0.151-0.607-0.218c-0.046-0.015-0.09-0.033-0.136-0.047c-0.183-0.056-0.37-0.098-0.556-0.139
		c-0.071-0.016-0.139-0.038-0.21-0.051c-0.163-0.032-0.327-0.051-0.491-0.073c-0.096-0.013-0.193-0.032-0.29-0.042
		c-0.155-0.015-0.312-0.017-0.468-0.024c-0.104-0.004-0.207-0.015-0.312-0.015c-0.119,0-0.236,0.012-0.354,0.017
		c-0.141,0.006-0.283,0.008-0.423,0.021c-0.113,0.011-0.224,0.033-0.335,0.048c-0.148,0.02-0.297,0.038-0.444,0.066
		c-0.089,0.017-0.175,0.044-0.263,0.064c-0.168,0.039-0.337,0.076-0.503,0.126c-0.066,0.02-0.131,0.047-0.196,0.069
		c-0.183,0.06-0.367,0.121-0.547,0.195c-0.05,0.02-0.099,0.047-0.148,0.069c-0.19,0.083-0.379,0.168-0.564,0.267
		c-0.046,0.025-0.09,0.055-0.136,0.08c-0.182,0.102-0.363,0.206-0.539,0.323c-0.074,0.049-0.143,0.106-0.215,0.158
		c-0.141,0.102-0.285,0.2-0.421,0.312c-0.207,0.169-0.406,0.348-0.597,0.539l-28.396,28.396l-0.001,0.001l-14.459,14.459
		c-15.419,15.42-15.582,40.392-0.511,56.025l-24.472,24.472c-0.19,0.19-0.37,0.389-0.538,0.596c-0.137,0.167-0.26,0.341-0.382,0.516
		c-0.028,0.04-0.06,0.077-0.087,0.118c-0.138,0.208-0.265,0.421-0.382,0.639c-0.006,0.012-0.014,0.023-0.02,0.034
		c-0.117,0.219-0.222,0.443-0.316,0.67c-0.005,0.014-0.013,0.027-0.018,0.04c-0.09,0.218-0.167,0.439-0.237,0.662
		c-0.009,0.027-0.019,0.053-0.028,0.079c-0.064,0.212-0.115,0.427-0.161,0.641c-0.009,0.042-0.021,0.081-0.03,0.123
		c-0.042,0.212-0.071,0.427-0.095,0.641c-0.005,0.046-0.015,0.092-0.02,0.138c-0.051,0.524-0.051,1.051,0,1.575
		c0.004,0.047,0.015,0.093,0.02,0.14c0.025,0.214,0.054,0.428,0.095,0.639c0.009,0.041,0.021,0.081,0.03,0.122
		c0.046,0.216,0.098,0.431,0.162,0.643c0.007,0.024,0.017,0.046,0.025,0.07c0.071,0.226,0.149,0.451,0.24,0.672
		c0.003,0.008,0.008,0.015,0.011,0.023c0.196,0.472,0.438,0.927,0.729,1.361c0.004,0.008,0.011,0.014,0.015,0.02
		c0.141,0.21,0.292,0.415,0.454,0.614c0.029,0.035,0.062,0.066,0.091,0.101c0.141,0.167,0.285,0.332,0.443,0.491l23.23,23.228
		l6.195,6.195L237.087,298.685l-9.948-9.948l-13.79-13.79l119.808-119.738c3.14-3.138,3.142-8.228,0.003-11.368
		c-3.139-3.141-8.229-3.142-11.368-0.003L196.308,269.251c-0.003,0.003-0.008,0.006-0.011,0.01l-9.655,9.656
		c-0.005,0.005-0.012,0.01-0.017,0.015l-6.452,6.453l-41.912-41.914c-1.508-1.507-3.553-2.354-5.685-2.354s-4.176,0.847-5.685,2.354
		l-80.269,80.27C1.364,369.001-12.35,436.583,11.687,495.913c0.817,2.016,2.416,3.615,4.432,4.432
		c19.036,7.712,39.145,11.623,59.772,11.623c42.459,0,82.377-16.535,112.402-46.558l80.269-80.27
		c1.507-1.508,2.354-3.552,2.354-5.685c0-2.132-0.847-4.176-2.354-5.685L226.65,331.86l6.451-6.451
		c0.001-0.001,0.002-0.003,0.004-0.004l9.657-9.657c0.003-0.003,0.008-0.006,0.012-0.011l143.521-143.521l24.471-24.471
		c7.491,7.224,17.31,11.201,27.743,11.201c10.683,0,20.727-4.161,28.282-11.714l42.856-42.856c0.19-0.19,0.37-0.389,0.538-0.596
		c0.134-0.163,0.254-0.333,0.374-0.505c0.03-0.044,0.065-0.085,0.094-0.129c0.136-0.205,0.26-0.415,0.376-0.629
		c0.009-0.015,0.018-0.029,0.026-0.044c0.116-0.216,0.219-0.437,0.313-0.661c0.007-0.016,0.016-0.032,0.022-0.048
		c0.089-0.214,0.165-0.433,0.235-0.654c0.01-0.03,0.021-0.058,0.031-0.088c0.063-0.209,0.113-0.419,0.159-0.631
		c0.01-0.045,0.024-0.088,0.032-0.133c0.041-0.207,0.069-0.416,0.093-0.625c0.006-0.051,0.017-0.102,0.022-0.154
		C512.013,98.954,512.013,98.428,511.961,97.904z M251.509,379.456l-74.586,74.586c-26.988,26.988-62.868,41.85-101.034,41.85
		c-17.4,0-34.389-3.094-50.55-9.2C5.48,434.139,18.115,374.985,57.992,335.109l74.585-74.587l36.228,36.229l-26.66,26.66
		c-3.139,3.14-3.139,8.229,0,11.368c1.57,1.569,3.628,2.354,5.685,2.354c2.057,0,4.114-0.784,5.685-2.354l32.337-32.337
		c0.002-0.002,0.005-0.004,0.008-0.006l16.124-16.125l10.045,10.046l13.694,13.695l-3.976,3.976
		c-0.004,0.004-0.009,0.007-0.013,0.012l-44.479,44.479c-3.139,3.14-3.139,8.229,0,11.368c1.57,1.569,3.628,2.354,5.685,2.354
		c2.057,0,4.114-0.785,5.685-2.354l26.661-26.661L251.509,379.456z M380.609,155.164l-9.234-9.233l-14.507-14.506l18.775-18.775
		l4.441,4.441c0.001,0.001,0.001,0.001,0.002,0.002l14.858,14.858c0.005,0.005,0.011,0.01,0.016,0.015l3.333,3.332l1.091,1.091
		L380.609,155.164z M455.422,135.863c-4.517,4.518-10.525,7.006-16.913,7.006c-6.39,0-12.396-2.488-16.914-7.005l-5.153-5.153
		c-0.002-0.002-0.004-0.004-0.006-0.006l-5.469-5.469l-1.961-1.961c-0.338-0.337-0.657-0.685-0.969-1.036
		c-0.209-0.237-0.433-0.461-0.67-0.67c-0.357-0.318-0.711-0.644-1.046-0.979l-7.438-7.438l-7.425-7.426
		c-0.344-0.343-0.671-0.699-0.991-1.058c-0.209-0.237-0.433-0.461-0.67-0.67c-0.349-0.31-0.696-0.627-1.043-0.976l-12.584-12.583
		c-9.326-9.325-9.325-24.501,0.001-33.827l8.775-8.775l79.253,79.253L455.422,135.863z M475.566,115.719l-79.253-79.253
		l17.029-17.029l79.253,79.253L475.566,115.719z"/>
</g>
<g style="opacity:0.15;">
	
		<rect x="402.261" y="18.408" transform="matrix(-0.6993 -0.7148 0.7148 -0.6993 673.9714 351.1176)" style="fill:#231F20;" width="17.148" height="30.797"/>
</g>
<g>
</g>
<g>
</g>
<g>
</g>
<g>
</g>
<g>
</g>
<g>
</g>
<g>
</g>
<g>
</g>
<g>
</g>
<g>
</g>
<g>
</g>
<g>
</g>
<g>
</g>
<g>
</g>
<g>
</g>
</svg>
